<?xml version="1.0" standalone="no"?>
<!DOCTYPE svg PUBLIC "-//W3C//DTD SVG 20010904//EN"
 "http://www.w3.org/TR/2001/REC-SVG-20010904/DTD/svg10.dtd">
<svg version="1.0" xmlns="http://www.w3.org/2000/svg"
 width="64.000000pt" height="64.000000pt" viewBox="0 0 64.000000 64.000000"
 preserveAspectRatio="xMidYMid meet">

<g transform="translate(0.000000,64.000000) scale(0.100000,-0.100000)"
fill="#d6d6d6" stroke="none">
<path d="M134 605 c-4 -8 -15 -15 -25 -15 -12 0 -19 -7 -19 -20 0 -15 -7 -20
-29 -20 -17 0 -32 -4 -35 -8 -2 -4 11 -6 30 -4 26 3 34 1 34 -12 0 -12 -9 -16
-35 -16 -19 0 -35 -3 -35 -8 0 -4 15 -7 32 -7 l33 0 0 -55 0 -55 -32 0 c-18 0
-33 -3 -33 -7 0 -5 16 -8 35 -8 26 0 35 -4 35 -16 0 -13 -8 -15 -35 -12 -19 2
-35 0 -35 -4 0 -4 16 -8 35 -8 26 0 35 -4 35 -16 0 -13 -8 -15 -35 -12 -19 2
-35 0 -35 -4 0 -4 16 -8 35 -8 26 0 35 -4 35 -16 0 -13 -8 -15 -35 -12 -19 2
-35 0 -35 -4 0 -4 16 -8 35 -8 50 0 48 -27 -2 -33 l-38 -4 38 -1 c27 -2 37 -6
37 -18 0 -13 -8 -15 -34 -12 -19 2 -32 0 -30 -4 3 -4 18 -8 35 -8 22 0 29 -5
29 -20 0 -11 3 -20 8 -20 4 0 6 31 4 70 -3 65 -2 70 17 70 11 0 23 5 26 10 4
6 16 -1 28 -17 26 -33 59 -62 70 -63 5 0 -6 12 -24 27 -17 15 -40 45 -49 66
-17 38 -18 38 -24 13 -4 -17 -13 -26 -26 -26 -18 0 -20 7 -20 79 0 75 1 80 23
84 l22 4 -22 2 c-21 1 -23 6 -23 66 l0 65 220 0 220 0 0 -65 c0 -59 -2 -65
-20 -65 -11 0 -23 -7 -26 -15 -5 -11 -12 -7 -28 17 -26 39 -81 78 -110 78 -14
-1 -8 -6 17 -14 46 -17 74 -40 94 -80 14 -27 17 -28 28 -13 7 9 20 17 29 17
13 0 16 -13 16 -80 0 -73 -2 -80 -20 -80 -13 0 -22 9 -26 26 -6 25 -7 25 -24
-13 -9 -21 -32 -51 -49 -66 -18 -15 -29 -27 -24 -27 11 1 44 30 70 63 12 16
24 23 28 17 3 -5 15 -10 26 -10 19 0 20 -5 17 -70 -2 -39 0 -70 5 -70 4 0 7 9
7 20 0 15 7 20 29 20 17 0 32 4 35 8 2 4 -11 6 -30 4 -26 -3 -34 0 -34 11 0
11 12 17 38 20 l37 4 -37 1 c-51 3 -54 32 -3 32 19 0 35 4 35 8 0 4 -16 6 -35
4 -27 -3 -35 -1 -35 12 0 12 9 16 35 16 19 0 35 4 35 8 0 4 -16 6 -35 4 -27
-3 -35 -1 -35 12 0 12 9 16 35 16 19 0 35 4 35 8 0 4 -16 6 -35 4 -27 -3 -35
-1 -35 12 0 12 9 16 35 16 19 0 35 3 35 8 0 4 -15 7 -32 7 l-33 0 0 55 0 55
33 0 c17 0 32 3 32 7 0 5 -16 8 -35 8 -26 0 -35 4 -35 16 0 13 8 15 34 12 19
-2 32 0 30 4 -3 4 -18 8 -35 8 -22 0 -29 5 -29 20 0 18 -7 20 -66 20 -55 0
-65 3 -60 15 3 8 1 15 -4 15 -6 0 -10 -7 -10 -15 0 -12 -17 -15 -90 -15 -73 0
-90 3 -90 15 0 8 -4 15 -10 15 -5 0 -7 -7 -4 -15 5 -12 -3 -15 -36 -15 -33 0
-41 3 -36 15 3 8 3 15 0 15 -2 0 -7 -7 -10 -15z"/>
<path d="M120 555 c-10 -11 -10 -19 -2 -27 15 -15 44 -2 40 19 -4 23 -22 27
-38 8z"/>
<path d="M484 555 c-7 -18 3 -35 21 -35 21 0 28 19 15 35 -16 19 -29 19 -36 0z
m26 1 c0 -3 -4 -8 -10 -11 -5 -3 -10 -1 -10 4 0 6 5 11 10 11 6 0 10 -2 10 -4z"/>
<path d="M229 507 c-37 -25 -79 -81 -79 -106 0 -9 9 2 19 24 22 49 48 73 98
91 25 8 31 13 17 14 -12 0 -36 -10 -55 -23z"/>
<path d="M263 500 c-30 -12 -29 -21 7 -55 36 -34 53 -25 48 26 -3 36 -18 44
-55 29z"/>
<path d="M349 508 c-6 -23 -1 -92 7 -95 14 -5 66 47 61 61 -3 9 -66 40 -68 34z"/>
<path d="M185 430 c-8 -16 -15 -33 -15 -39 0 -12 88 -12 96 1 6 10 -43 68 -58
68 -4 0 -14 -13 -23 -30z"/>
<path d="M406 411 c-34 -35 -27 -51 20 -51 40 0 52 19 36 56 -15 31 -22 30
-56 -5z"/>
<path d="M290 385 c-15 -18 -10 -45 13 -59 34 -22 73 27 47 59 -16 19 -44 19
-60 0z m33 -7 c-13 -6 -23 -18 -24 -27 0 -11 -2 -12 -6 -3 -9 22 5 42 29 41
l23 0 -22 -11z"/>
<path d="M142 360 c0 -14 2 -19 5 -12 2 6 2 18 0 25 -3 6 -5 1 -5 -13z"/>
<path d="M492 360 c0 -14 2 -19 5 -12 2 6 2 18 0 25 -3 6 -5 1 -5 -13z"/>
<path d="M183 353 c-16 -6 -16 -31 0 -61 l13 -22 33 34 c18 19 30 39 27 45 -7
11 -51 14 -73 4z"/>
<path d="M375 331 c-3 -2 -5 -7 -5 -11 0 -10 51 -60 61 -60 11 0 42 60 35 67
-7 7 -85 11 -91 4z"/>
<path d="M247 282 c-15 -15 -27 -31 -27 -35 0 -7 54 -37 67 -37 12 0 9 93 -3
97 -6 2 -22 -9 -37 -25z"/>
<path d="M327 293 c-4 -3 -7 -21 -7 -40 0 -40 18 -50 61 -33 l30 13 -32 33
c-34 35 -41 39 -52 27z"/>
<path d="M120 185 c-10 -11 -10 -19 -2 -27 15 -15 44 -2 40 19 -4 23 -22 27
-38 8z"/>
<path d="M275 190 c19 -8 83 -14 74 -6 -2 2 -24 6 -49 9 -30 4 -38 3 -25 -3z"/>
<path d="M484 185 c-7 -18 3 -35 21 -35 21 0 28 19 15 35 -16 19 -29 19 -36 0z"/>
<path d="M139 88 c14 -33 26 -46 52 -54 34 -12 34 -12 37 22 l3 34 90 0 89 0
0 -34 c0 -31 2 -34 23 -28 12 4 29 12 38 17 19 11 53 85 40 85 -5 0 -12 -12
-16 -27 -3 -16 -14 -36 -22 -45 -20 -22 -53 -24 -53 -3 0 8 7 15 15 15 8 0 19
10 25 23 11 21 11 21 -5 2 -13 -16 -19 -18 -35 -7 -24 15 -186 16 -195 2 -12
-19 -35 -10 -41 15 -3 14 -10 25 -15 25 -5 0 -3 -13 6 -30 9 -16 22 -30 30
-30 8 0 15 -7 15 -15 0 -21 -33 -19 -53 3 -8 9 -19 29 -22 45 -4 15 -11 27
-16 27 -4 0 0 -19 10 -42z"/>
</g>
</svg>
