<?xml version="1.0" standalone="no"?>
<!DOCTYPE svg PUBLIC "-//W3C//DTD SVG 20010904//EN"
 "http://www.w3.org/TR/2001/REC-SVG-20010904/DTD/svg10.dtd">
<svg version="1.0" xmlns="http://www.w3.org/2000/svg"
 width="64.000000pt" height="64.000000pt" viewBox="0 0 64.000000 64.000000"
 preserveAspectRatio="xMidYMid meet">

<g transform="translate(0.000000,64.000000) scale(0.100000,-0.100000)"
fill="#d6d6d6" stroke="none">
<path d="M194 529 c-28 -8 -33 -16 -52 -83 -12 -41 -22 -78 -22 -83 0 -6 21
-5 50 1 49 10 57 9 121 -18 13 -6 20 8 37 72 12 44 22 82 22 86 0 12 -68 36
-97 35 -15 0 -42 -5 -59 -10z m99 -73 c-2 -22 -6 -43 -10 -47 -5 -4 -31 -5
-59 -2 l-51 5 10 35 c12 39 36 53 82 50 28 -2 30 -4 28 -41z"/>
<path d="M377 473 c-2 -4 -12 -35 -21 -68 -10 -33 -19 -67 -22 -76 -9 -31 90
-54 158 -36 21 5 30 16 38 45 5 20 16 58 24 83 l14 46 -71 -1 c-40 -1 -82 3
-94 7 -12 4 -23 4 -26 0z m130 -57 c6 -5 -19 -76 -27 -81 -12 -8 -89 -9 -96
-2 -3 2 0 25 7 50 l11 46 52 -6 c28 -3 52 -7 53 -7z"/>
<path d="M131 317 c-19 -9 -30 -31 -48 -91 -14 -43 -23 -80 -20 -82 2 -2 19 1
38 6 48 14 85 12 118 -5 l28 -14 22 78 c11 43 21 83 21 89 0 27 -115 42 -159
19z m102 -33 c12 -4 13 -12 2 -47 l-12 -42 -49 4 c-27 1 -51 5 -52 6 -10 9 21
74 36 78 26 7 59 8 75 1z"/>
<path d="M299 208 c-11 -39 -23 -77 -26 -84 -9 -23 63 -47 121 -40 27 3 53 9
58 14 5 5 20 44 33 85 l23 77 -56 -6 c-40 -5 -68 -2 -94 9 l-38 16 -21 -71z
m148 -2 c1 -1 -3 -18 -9 -38 -11 -36 -29 -48 -73 -48 -40 0 -48 13 -34 58 l12
41 51 -6 c28 -3 52 -7 53 -7z"/>
</g>
</svg>
