<?xml version="1.0" standalone="no"?>
<!DOCTYPE svg PUBLIC "-//W3C//DTD SVG 20010904//EN"
 "http://www.w3.org/TR/2001/REC-SVG-20010904/DTD/svg10.dtd">
<svg version="1.0" xmlns="http://www.w3.org/2000/svg"
 width="512.000000pt" height="512.000000pt" viewBox="0 0 512.000000 512.000000"
 preserveAspectRatio="xMidYMid meet">

<g transform="translate(0.000000,512.000000) scale(0.100000,-0.100000)"
fill="#d6d6d6" stroke="none">
<path d="M671 4623 c-16 -14 -76 -201 -255 -798 l-233 -780 -43 -7 c-52 -9
-102 -46 -124 -92 -15 -32 -16 -133 -14 -1199 l3 -1164 27 -35 c57 -74 -181
-68 2528 -68 2709 0 2471 -6 2528 68 l27 35 3 1164 c2 1066 1 1167 -14 1199
-22 46 -72 83 -124 92 l-43 7 -233 780 c-179 597 -239 784 -255 798 -20 16
-125 17 -1889 17 -1764 0 -1869 -1 -1889 -17z m3880 -843 c115 -382 212 -705
215 -717 l6 -23 -2211 0 c-1216 0 -2211 2 -2211 5 0 5 415 1393 425 1423 4 10
366 12 1786 10 l1782 -3 208 -695z m409 -2020 l0 -1120 -2400 0 -2400 0 0
1120 0 1120 2400 0 2400 0 0 -1120z"/>
<path d="M880 4240 l0 -80 80 0 80 0 0 80 0 80 -80 0 -80 0 0 -80z"/>
<path d="M4080 4240 l0 -80 80 0 80 0 0 80 0 80 -80 0 -80 0 0 -80z"/>
<path d="M1473 4065 c-31 -22 -197 -522 -188 -565 14 -63 -29 -60 990 -60
l925 0 0 80 0 80 -864 0 -864 0 52 158 53 157 1016 3 1017 2 5 -22 c9 -42 45
-265 45 -282 0 -14 -18 -16 -150 -16 l-150 0 0 -80 0 -80 205 0 c128 0 213 4
228 11 53 24 53 39 13 286 -46 279 -52 303 -79 325 -21 16 -95 18 -1127 18
-966 0 -1108 -2 -1127 -15z"/>
<path d="M320 2640 l0 -80 80 0 80 0 0 80 0 80 -80 0 -80 0 0 -80z"/>
<path d="M583 2457 l-263 -263 0 -434 0 -434 263 -263 263 -263 434 0 434 0
263 263 263 263 0 434 0 434 -263 263 -263 263 -434 0 -434 0 -263 -263z m617
23 l0 -80 -102 0 -102 0 -178 -178 -178 -178 0 -102 0 -102 -80 0 -80 0 0 142
0 143 217 217 218 218 142 0 143 0 0 -80z m662 -137 l218 -218 0 -142 0 -143
-80 0 -80 0 0 102 0 102 -178 178 -178 178 -102 0 -102 0 0 80 0 80 142 0 143
0 217 -217z m-662 -187 l0 -85 -52 -24 c-29 -13 -70 -42 -92 -63 -21 -22 -50
-63 -63 -91 l-24 -53 -85 0 -84 0 0 72 0 73 127 127 128 128 72 0 73 0 0 -84z
m432 -43 l128 -128 0 -72 0 -73 -84 0 -85 0 -24 53 c-13 28 -42 69 -63 91 -22
21 -63 50 -91 63 l-53 24 0 85 0 84 72 0 73 0 127 -127z m-259 -226 c98 -74
82 -219 -29 -272 -107 -50 -235 43 -221 161 13 121 155 184 250 111z m-733
-309 l0 -102 178 -178 178 -178 102 0 102 0 0 -80 0 -80 -142 0 -143 0 -217
217 -218 218 0 142 0 143 80 0 80 0 0 -102z m353 50 c13 -29 42 -70 63 -92 22
-21 63 -50 92 -63 l52 -24 0 -85 0 -84 -72 0 -73 0 -127 127 -128 128 0 72 0
73 84 0 85 0 24 -52z m767 -20 l0 -73 -127 -127 -128 -128 -72 0 -73 0 0 84 0
85 53 24 c28 13 69 42 91 63 21 22 50 63 63 92 l24 52 85 0 84 0 0 -72z m320
-70 l0 -143 -217 -217 -218 -218 -142 0 -143 0 0 80 0 80 102 0 102 0 178 178
178 178 0 102 0 102 80 0 80 0 0 -142z"/>
<path d="M2492 2703 c-18 -9 -45 -32 -60 -51 l-27 -35 0 -377 0 -377 27 -35
c55 -72 -7 -68 1008 -68 1015 0 953 -4 1008 68 l27 35 0 377 0 377 -27 35
c-55 72 7 68 -1010 68 -825 0 -916 -2 -946 -17z m228 -463 l0 -320 -80 0 -80
0 0 320 0 320 80 0 80 0 0 -320z m320 0 l0 -320 -80 0 -80 0 0 320 0 320 80 0
80 0 0 -320z m320 0 l0 -320 -80 0 -80 0 0 320 0 320 80 0 80 0 0 -320z m320
0 l0 -320 -80 0 -80 0 0 320 0 320 80 0 80 0 0 -320z m320 0 l0 -320 -80 0
-80 0 0 320 0 320 80 0 80 0 0 -320z m320 0 l0 -320 -80 0 -80 0 0 320 0 320
80 0 80 0 0 -320z"/>
<path d="M4640 2640 l0 -80 80 0 80 0 0 80 0 80 -80 0 -80 0 0 -80z"/>
<path d="M2600 1584 c-14 -9 -64 -75 -112 -148 l-88 -132 0 -226 0 -225 26
-27 27 -26 586 0 c445 1 590 4 602 13 35 27 39 53 39 273 l0 218 -87 132 c-49
73 -100 140 -115 148 -23 14 -81 16 -440 16 -356 0 -416 -3 -438 -16z m859
-237 l61 -93 0 -147 0 -147 -480 0 -480 0 0 147 0 147 61 93 62 93 357 0 357
0 62 -93z"/>
<path d="M2720 1200 l0 -80 120 0 120 0 0 80 0 80 -120 0 -120 0 0 -80z"/>
<path d="M3120 1200 l0 -80 120 0 120 0 0 80 0 80 -120 0 -120 0 0 -80z"/>
<path d="M3904 1376 l-64 -64 0 -150 c0 -148 0 -150 26 -176 l27 -26 266 0
c193 1 270 4 282 13 33 25 39 55 39 197 l0 142 -64 64 -64 64 -192 0 -192 0
-64 -64z m398 -113 c14 -12 18 -31 18 -80 l0 -63 -160 0 -160 0 0 62 c0 94 6
98 158 98 103 0 129 -3 144 -17z"/>
<path d="M320 880 l0 -80 80 0 80 0 0 80 0 80 -80 0 -80 0 0 -80z"/>
<path d="M4640 880 l0 -80 80 0 80 0 0 80 0 80 -80 0 -80 0 0 -80z"/>
</g>
</svg>
