<?xml version="1.0" standalone="no"?>
<!DOCTYPE svg PUBLIC "-//W3C//DTD SVG 20010904//EN"
 "http://www.w3.org/TR/2001/REC-SVG-20010904/DTD/svg10.dtd">
<svg version="1.0" xmlns="http://www.w3.org/2000/svg"
 width="64.000000pt" height="64.000000pt" viewBox="0 0 64.000000 64.000000"
 preserveAspectRatio="xMidYMid meet">

<g transform="translate(0.000000,64.000000) scale(0.100000,-0.100000)"
fill="#d6d6d6" stroke="none">
<path d="M132 618 c-9 -9 -12 -92 -12 -310 l0 -298 188 0 c133 0 192 4 200 12
17 17 17 579 0 596 -17 17 -359 17 -376 0z m366 -295 l-3 -288 -22 -3 c-20 -3
-23 2 -29 47 l-7 51 -117 0 -117 0 -7 -50 c-6 -45 -9 -50 -31 -50 l-25 0 0
290 0 290 180 0 180 0 -2 -287z m-272 -291 c-13 -12 -17 8 -9 44 l8 39 3 -39
c2 -21 1 -41 -2 -44z m44 38 c0 -22 -4 -40 -10 -40 -5 0 -10 18 -10 40 0 22 5
40 10 40 6 0 10 -18 10 -40z m40 0 c0 -22 -4 -40 -10 -40 -5 0 -10 18 -10 40
0 22 5 40 10 40 6 0 10 -18 10 -40z m40 0 c0 -22 -4 -40 -10 -40 -5 0 -10 18
-10 40 0 22 5 40 10 40 6 0 10 -18 10 -40z m40 0 c0 -22 -4 -40 -10 -40 -5 0
-10 18 -10 40 0 22 5 40 10 40 6 0 10 -18 10 -40z m39 -22 c1 -10 -3 -18 -9
-18 -5 0 -10 19 -9 43 1 36 2 38 9 17 4 -14 8 -33 9 -42z"/>
<path d="M150 590 c0 -5 5 -10 10 -10 6 0 10 5 10 10 0 6 -4 10 -10 10 -5 0
-10 -4 -10 -10z"/>
<path d="M470 590 c0 -5 5 -10 10 -10 6 0 10 5 10 10 0 6 -4 10 -10 10 -5 0
-10 -4 -10 -10z"/>
<path d="M190 390 l0 -130 130 0 130 0 0 130 0 130 -130 0 -130 0 0 -130z
m240 0 l0 -110 -110 0 -110 0 0 110 0 110 110 0 110 0 0 -110z"/>
<path d="M250 406 c0 -13 6 -27 13 -29 10 -4 10 -6 0 -6 -21 -2 -14 -21 7 -21
14 0 20 7 20 24 0 13 -6 27 -12 29 -10 4 -10 6 0 6 20 2 13 21 -8 21 -14 0
-20 -7 -20 -24z"/>
<path d="M300 406 c0 -13 6 -27 13 -29 10 -4 10 -6 0 -6 -21 -2 -14 -21 7 -21
14 0 20 7 20 24 0 13 -6 27 -12 29 -10 4 -10 6 0 6 20 2 13 21 -8 21 -14 0
-20 -7 -20 -24z"/>
<path d="M350 390 c0 -37 2 -41 23 -38 18 2 22 9 22 38 0 29 -4 36 -22 38 -21
3 -23 -1 -23 -38z m27 -12 c-3 -7 -5 -2 -5 12 0 14 2 19 5 13 2 -7 2 -19 0
-25z"/>
<path d="M150 50 c0 -5 5 -10 10 -10 6 0 10 5 10 10 0 6 -4 10 -10 10 -5 0
-10 -4 -10 -10z"/>
<path d="M470 50 c0 -5 5 -10 10 -10 6 0 10 5 10 10 0 6 -4 10 -10 10 -5 0
-10 -4 -10 -10z"/>
</g>
</svg>
